# xmcd
#
# Track frame offsets: 
#        150
#        11962
#        24825
#        41010
#        54237
#        72675
#        84900
#        96697
#        108155
#        121447
#
# Disc length: 1756 seconds
#
# Revision: 3
# Processed by: cddbd v1.5.2PL0 Copyright (c) Steve Scherf et al.
# Submitted via: ExactAudioCopyFreeDBPlugin 1.0
#
DISCID=8206da0a
DTITLE=Various Artist - classic r&b Oldies from the 60's
DYEAR=1994
DGENRE=R&B
TTITLE0=The O'Kaysions - Girl Watcher
TTITLE1=The Impressions - It's All Right
TTITLE2=Eddie Holman - Hey There Lonely Girl
TTITLE3=Rontella Bass - Rescue Me
TTITLE4=The Dells - Oh, What a Night
TTITLE5=Bobby Bland - I Pity the Fool
TTITLE6=Hugh Hasekela - Grazing in the Grass
TTITLE7=Ruby and The Romantics - Our Day Will Come
TTITLE8=Four Tops - Reach Out I'll Be There
TTITLE9=The Marcels - Blue Moon
EXTD=\n\n
EXTT0=
EXTT1=
EXTT2=
EXTT3=
EXTT4=
EXTT5=
EXTT6=
EXTT7=
EXTT8=
EXTT9=
PLAYORDER=
